{
	"asset":{
		"generator":"Khronos glTF Blender I/O v5.1.20",
		"version":"2.0"
	},
	"scene":0,
	"scenes":[
		{
			"name":"Scene",
			"nodes":[
				1
			]
		}
	],
	"nodes":[
		{
			"mesh":0,
			"name":"Minecraft_Aquarium_BubbleMachine_Baked"
		},
		{
			"children":[
				0
			],
			"name":"world"
		}
	],
	"materials":[
		{
			"name":"Minecraft_Aquarium_BubbleMachine_Baked_BakedMaterial.001",
			"pbrMetallicRoughness":{
				"baseColorTexture":{
					"index":0
				},
				"metallicFactor":0,
				"roughnessFactor":0.8399999737739563
			}
		}
	],
	"meshes":[
		{
			"name":"Minecraft_Aquarium_BubbleMachine_Baked.001",
			"primitives":[
				{
					"attributes":{
						"POSITION":0,
						"NORMAL":1,
						"TEXCOORD_0":2
					},
					"indices":3,
					"material":0
				}
			]
		}
	],
	"textures":[
		{
			"sampler":0,
			"source":0
		}
	],
	"images":[
		{
			"mimeType":"image/png",
			"name":"Image_0",
			"uri":"Image_0.png"
		}
	],
	"accessors":[
		{
			"bufferView":0,
			"componentType":5126,
			"count":10152,
			"max":[
				2.0999999046325684,
				6.599999904632568,
				1.7000000476837158
			],
			"min":[
				-2.0999999046325684,
				0,
				-1.7000000476837158
			],
			"type":"VEC3"
		},
		{
			"bufferView":1,
			"componentType":5126,
			"count":10152,
			"type":"VEC3"
		},
		{
			"bufferView":2,
			"componentType":5126,
			"count":10152,
			"type":"VEC2"
		},
		{
			"bufferView":3,
			"componentType":5123,
			"count":15228,
			"type":"SCALAR"
		}
	],
	"bufferViews":[
		{
			"buffer":0,
			"byteLength":121824,
			"byteOffset":0,
			"target":34962
		},
		{
			"buffer":0,
			"byteLength":121824,
			"byteOffset":121824,
			"target":34962
		},
		{
			"buffer":0,
			"byteLength":81216,
			"byteOffset":243648,
			"target":34962
		},
		{
			"buffer":0,
			"byteLength":30456,
			"byteOffset":324864,
			"target":34963
		}
	],
	"samplers":[
		{
			"magFilter":9729,
			"minFilter":9987
		}
	],
	"buffers":[
		{
			"byteLength":355320,
			"uri":"BubbleMachine.bin"
		}
	]
}
