{
	"asset":{
		"generator":"Khronos glTF Blender I/O v5.1.20",
		"version":"2.0"
	},
	"scene":0,
	"scenes":[
		{
			"name":"Scene",
			"nodes":[
				1
			]
		}
	],
	"nodes":[
		{
			"mesh":0,
			"name":"Minecraft_Aquarium_Clams_Baked"
		},
		{
			"children":[
				0
			],
			"name":"world"
		}
	],
	"materials":[
		{
			"name":"Minecraft_Aquarium_Clams_Baked_BakedMaterial.001",
			"pbrMetallicRoughness":{
				"baseColorTexture":{
					"index":0
				},
				"metallicFactor":0,
				"roughnessFactor":0.8399999737739563
			}
		}
	],
	"meshes":[
		{
			"name":"Minecraft_Aquarium_Clams_Baked.001",
			"primitives":[
				{
					"attributes":{
						"POSITION":0,
						"NORMAL":1,
						"TEXCOORD_0":2
					},
					"indices":3,
					"material":0
				}
			]
		}
	],
	"textures":[
		{
			"sampler":0,
			"source":0
		}
	],
	"images":[
		{
			"mimeType":"image/png",
			"name":"Image_0",
			"uri":"Image_0.png"
		}
	],
	"accessors":[
		{
			"bufferView":0,
			"componentType":5126,
			"count":8640,
			"max":[
				2.700000047683716,
				3.799999952316284,
				2.200000047683716
			],
			"min":[
				-2.700000047683716,
				0,
				-2.200000047683716
			],
			"type":"VEC3"
		},
		{
			"bufferView":1,
			"componentType":5126,
			"count":8640,
			"type":"VEC3"
		},
		{
			"bufferView":2,
			"componentType":5126,
			"count":8640,
			"type":"VEC2"
		},
		{
			"bufferView":3,
			"componentType":5123,
			"count":12960,
			"type":"SCALAR"
		}
	],
	"bufferViews":[
		{
			"buffer":0,
			"byteLength":103680,
			"byteOffset":0,
			"target":34962
		},
		{
			"buffer":0,
			"byteLength":103680,
			"byteOffset":103680,
			"target":34962
		},
		{
			"buffer":0,
			"byteLength":69120,
			"byteOffset":207360,
			"target":34962
		},
		{
			"buffer":0,
			"byteLength":25920,
			"byteOffset":276480,
			"target":34963
		}
	],
	"samplers":[
		{
			"magFilter":9729,
			"minFilter":9987
		}
	],
	"buffers":[
		{
			"byteLength":302400,
			"uri":"Clams.bin"
		}
	]
}
