{
	"asset":{
		"generator":"Khronos glTF Blender I/O v5.1.20",
		"version":"2.0"
	},
	"scene":0,
	"scenes":[
		{
			"name":"Scene",
			"nodes":[
				1
			]
		}
	],
	"nodes":[
		{
			"mesh":0,
			"name":"Minecraft_Aquarium_Coral_Baked"
		},
		{
			"children":[
				0
			],
			"name":"world"
		}
	],
	"materials":[
		{
			"name":"Minecraft_Aquarium_Coral_Baked_BakedMaterial.001",
			"pbrMetallicRoughness":{
				"baseColorTexture":{
					"index":0
				},
				"metallicFactor":0,
				"roughnessFactor":0.8399999737739563
			}
		}
	],
	"meshes":[
		{
			"name":"Minecraft_Aquarium_Coral_Baked.001",
			"primitives":[
				{
					"attributes":{
						"POSITION":0,
						"NORMAL":1,
						"TEXCOORD_0":2
					},
					"indices":3,
					"material":0
				}
			]
		}
	],
	"textures":[
		{
			"sampler":0,
			"source":0
		}
	],
	"images":[
		{
			"mimeType":"image/png",
			"name":"Image_0",
			"uri":"Image_0.png"
		}
	],
	"accessors":[
		{
			"bufferView":0,
			"componentType":5126,
			"count":16712,
			"max":[
				2.8499999046325684,
				5.510000228881836,
				1.899999976158142
			],
			"min":[
				-2.8499999046325684,
				0,
				-1.899999976158142
			],
			"type":"VEC3"
		},
		{
			"bufferView":1,
			"componentType":5126,
			"count":16712,
			"type":"VEC3"
		},
		{
			"bufferView":2,
			"componentType":5126,
			"count":16712,
			"type":"VEC2"
		},
		{
			"bufferView":3,
			"componentType":5123,
			"count":25068,
			"type":"SCALAR"
		}
	],
	"bufferViews":[
		{
			"buffer":0,
			"byteLength":200544,
			"byteOffset":0,
			"target":34962
		},
		{
			"buffer":0,
			"byteLength":200544,
			"byteOffset":200544,
			"target":34962
		},
		{
			"buffer":0,
			"byteLength":133696,
			"byteOffset":401088,
			"target":34962
		},
		{
			"buffer":0,
			"byteLength":50136,
			"byteOffset":534784,
			"target":34963
		}
	],
	"samplers":[
		{
			"magFilter":9729,
			"minFilter":9987
		}
	],
	"buffers":[
		{
			"byteLength":584920,
			"uri":"Coral.bin"
		}
	]
}
