{
	"asset":{
		"generator":"Khronos glTF Blender I/O v5.1.20",
		"version":"2.0"
	},
	"scene":0,
	"scenes":[
		{
			"name":"Scene",
			"nodes":[
				1
			]
		}
	],
	"nodes":[
		{
			"mesh":0,
			"name":"Minecraft_Aquarium_Driftwood_Baked"
		},
		{
			"children":[
				0
			],
			"name":"world"
		}
	],
	"materials":[
		{
			"name":"Minecraft_Aquarium_Driftwood_Baked_BakedMaterial.001",
			"pbrMetallicRoughness":{
				"baseColorTexture":{
					"index":0
				},
				"metallicFactor":0,
				"roughnessFactor":0.8399999737739563
			}
		}
	],
	"meshes":[
		{
			"name":"Minecraft_Aquarium_Driftwood_Baked.001",
			"primitives":[
				{
					"attributes":{
						"POSITION":0,
						"NORMAL":1,
						"TEXCOORD_0":2
					},
					"indices":3,
					"material":0
				}
			]
		}
	],
	"textures":[
		{
			"sampler":0,
			"source":0
		}
	],
	"images":[
		{
			"mimeType":"image/png",
			"name":"Image_0",
			"uri":"Image_0.png"
		}
	],
	"accessors":[
		{
			"bufferView":0,
			"componentType":5126,
			"count":11528,
			"max":[
				3.5,
				6.199999809265137,
				1.600000023841858
			],
			"min":[
				-3.5,
				0,
				-1.600000023841858
			],
			"type":"VEC3"
		},
		{
			"bufferView":1,
			"componentType":5126,
			"count":11528,
			"type":"VEC3"
		},
		{
			"bufferView":2,
			"componentType":5126,
			"count":11528,
			"type":"VEC2"
		},
		{
			"bufferView":3,
			"componentType":5123,
			"count":17292,
			"type":"SCALAR"
		}
	],
	"bufferViews":[
		{
			"buffer":0,
			"byteLength":138336,
			"byteOffset":0,
			"target":34962
		},
		{
			"buffer":0,
			"byteLength":138336,
			"byteOffset":138336,
			"target":34962
		},
		{
			"buffer":0,
			"byteLength":92224,
			"byteOffset":276672,
			"target":34962
		},
		{
			"buffer":0,
			"byteLength":34584,
			"byteOffset":368896,
			"target":34963
		}
	],
	"samplers":[
		{
			"magFilter":9729,
			"minFilter":9987
		}
	],
	"buffers":[
		{
			"byteLength":403480,
			"uri":"Driftwood.bin"
		}
	]
}
