{
	"asset":{
		"generator":"Khronos glTF Blender I/O v5.1.20",
		"version":"2.0"
	},
	"scene":0,
	"scenes":[
		{
			"name":"Scene",
			"nodes":[
				1
			]
		}
	],
	"nodes":[
		{
			"mesh":0,
			"name":"Minecraft_Aquarium_Rocks_Baked"
		},
		{
			"children":[
				0
			],
			"name":"world"
		}
	],
	"materials":[
		{
			"name":"Minecraft_Aquarium_Rocks_Baked_BakedMaterial.001",
			"pbrMetallicRoughness":{
				"baseColorTexture":{
					"index":0
				},
				"metallicFactor":0,
				"roughnessFactor":0.8399999737739563
			}
		}
	],
	"meshes":[
		{
			"name":"Minecraft_Aquarium_Rocks_Baked.001",
			"primitives":[
				{
					"attributes":{
						"POSITION":0,
						"NORMAL":1,
						"TEXCOORD_0":2
					},
					"indices":3,
					"material":0
				}
			]
		}
	],
	"textures":[
		{
			"sampler":0,
			"source":0
		}
	],
	"images":[
		{
			"mimeType":"image/png",
			"name":"Image_0",
			"uri":"Image_0.png"
		}
	],
	"accessors":[
		{
			"bufferView":0,
			"componentType":5126,
			"count":7952,
			"max":[
				2.9700000286102295,
				4.179999828338623,
				2.309999942779541
			],
			"min":[
				-2.9700000286102295,
				0,
				-2.309999942779541
			],
			"type":"VEC3"
		},
		{
			"bufferView":1,
			"componentType":5126,
			"count":7952,
			"type":"VEC3"
		},
		{
			"bufferView":2,
			"componentType":5126,
			"count":7952,
			"type":"VEC2"
		},
		{
			"bufferView":3,
			"componentType":5123,
			"count":11928,
			"type":"SCALAR"
		}
	],
	"bufferViews":[
		{
			"buffer":0,
			"byteLength":95424,
			"byteOffset":0,
			"target":34962
		},
		{
			"buffer":0,
			"byteLength":95424,
			"byteOffset":95424,
			"target":34962
		},
		{
			"buffer":0,
			"byteLength":63616,
			"byteOffset":190848,
			"target":34962
		},
		{
			"buffer":0,
			"byteLength":23856,
			"byteOffset":254464,
			"target":34963
		}
	],
	"samplers":[
		{
			"magFilter":9729,
			"minFilter":9987
		}
	],
	"buffers":[
		{
			"byteLength":278320,
			"uri":"Rocks.bin"
		}
	]
}
