{
	"asset":{
		"generator":"Khronos glTF Blender I/O v5.1.20",
		"version":"2.0"
	},
	"scene":0,
	"scenes":[
		{
			"name":"Scene",
			"nodes":[
				1
			]
		}
	],
	"nodes":[
		{
			"mesh":0,
			"name":"Minecraft_Aquarium_Seaweed_Baked"
		},
		{
			"children":[
				0
			],
			"name":"world"
		}
	],
	"materials":[
		{
			"name":"Minecraft_Aquarium_Seaweed_Baked_BakedMaterial.001",
			"pbrMetallicRoughness":{
				"baseColorTexture":{
					"index":0
				},
				"metallicFactor":0,
				"roughnessFactor":0.8399999737739563
			}
		}
	],
	"meshes":[
		{
			"name":"Minecraft_Aquarium_Seaweed_Baked.001",
			"primitives":[
				{
					"attributes":{
						"POSITION":0,
						"NORMAL":1,
						"TEXCOORD_0":2
					},
					"indices":3,
					"material":0
				}
			]
		}
	],
	"textures":[
		{
			"sampler":0,
			"source":0
		}
	],
	"images":[
		{
			"mimeType":"image/png",
			"name":"Image_0",
			"uri":"Image_0.png"
		}
	],
	"accessors":[
		{
			"bufferView":0,
			"componentType":5126,
			"count":10072,
			"max":[
				2.9700000286102295,
				5.940000057220459,
				1.649999976158142
			],
			"min":[
				-2.9700000286102295,
				0,
				-1.649999976158142
			],
			"type":"VEC3"
		},
		{
			"bufferView":1,
			"componentType":5126,
			"count":10072,
			"type":"VEC3"
		},
		{
			"bufferView":2,
			"componentType":5126,
			"count":10072,
			"type":"VEC2"
		},
		{
			"bufferView":3,
			"componentType":5123,
			"count":15108,
			"type":"SCALAR"
		}
	],
	"bufferViews":[
		{
			"buffer":0,
			"byteLength":120864,
			"byteOffset":0,
			"target":34962
		},
		{
			"buffer":0,
			"byteLength":120864,
			"byteOffset":120864,
			"target":34962
		},
		{
			"buffer":0,
			"byteLength":80576,
			"byteOffset":241728,
			"target":34962
		},
		{
			"buffer":0,
			"byteLength":30216,
			"byteOffset":322304,
			"target":34963
		}
	],
	"samplers":[
		{
			"magFilter":9729,
			"minFilter":9987
		}
	],
	"buffers":[
		{
			"byteLength":352520,
			"uri":"Seaweed.bin"
		}
	]
}
