{
	"asset":{
		"generator":"Khronos glTF Blender I/O v5.1.20",
		"version":"2.0"
	},
	"scene":0,
	"scenes":[
		{
			"name":"Scene",
			"nodes":[
				1
			]
		}
	],
	"nodes":[
		{
			"mesh":0,
			"name":"Minecraft_Aquarium_Shipwreck_Baked"
		},
		{
			"children":[
				0
			],
			"name":"world"
		}
	],
	"materials":[
		{
			"name":"Minecraft_Aquarium_Shipwreck_Baked_BakedMaterial.001",
			"pbrMetallicRoughness":{
				"baseColorTexture":{
					"index":0
				},
				"metallicFactor":0,
				"roughnessFactor":0.8399999737739563
			}
		}
	],
	"meshes":[
		{
			"name":"Minecraft_Aquarium_Shipwreck_Baked.001",
			"primitives":[
				{
					"attributes":{
						"POSITION":0,
						"NORMAL":1,
						"TEXCOORD_0":2
					},
					"indices":3,
					"material":0
				}
			]
		}
	],
	"textures":[
		{
			"sampler":0,
			"source":0
		}
	],
	"images":[
		{
			"mimeType":"image/png",
			"name":"Image_0",
			"uri":"Image_0.png"
		}
	],
	"accessors":[
		{
			"bufferView":0,
			"componentType":5126,
			"count":15888,
			"max":[
				2.755000114440918,
				5.320000171661377,
				1.6150000095367432
			],
			"min":[
				-2.755000114440918,
				0,
				-1.6150000095367432
			],
			"type":"VEC3"
		},
		{
			"bufferView":1,
			"componentType":5126,
			"count":15888,
			"type":"VEC3"
		},
		{
			"bufferView":2,
			"componentType":5126,
			"count":15888,
			"type":"VEC2"
		},
		{
			"bufferView":3,
			"componentType":5123,
			"count":23832,
			"type":"SCALAR"
		}
	],
	"bufferViews":[
		{
			"buffer":0,
			"byteLength":190656,
			"byteOffset":0,
			"target":34962
		},
		{
			"buffer":0,
			"byteLength":190656,
			"byteOffset":190656,
			"target":34962
		},
		{
			"buffer":0,
			"byteLength":127104,
			"byteOffset":381312,
			"target":34962
		},
		{
			"buffer":0,
			"byteLength":47664,
			"byteOffset":508416,
			"target":34963
		}
	],
	"samplers":[
		{
			"magFilter":9729,
			"minFilter":9987
		}
	],
	"buffers":[
		{
			"byteLength":556080,
			"uri":"Shipwreck.bin"
		}
	]
}
