{
	"asset":{
		"generator":"Khronos glTF Blender I/O v5.1.20",
		"version":"2.0"
	},
	"scene":0,
	"scenes":[
		{
			"name":"Scene",
			"nodes":[
				1
			]
		}
	],
	"nodes":[
		{
			"mesh":0,
			"name":"Minecraft_Aquarium_TreasureChest_Baked"
		},
		{
			"children":[
				0
			],
			"name":"world"
		}
	],
	"materials":[
		{
			"name":"Minecraft_Aquarium_TreasureChest_Baked_BakedMaterial.001",
			"pbrMetallicRoughness":{
				"baseColorTexture":{
					"index":0
				},
				"metallicFactor":0,
				"roughnessFactor":0.8399999737739563
			}
		}
	],
	"meshes":[
		{
			"name":"Minecraft_Aquarium_TreasureChest_Baked.001",
			"primitives":[
				{
					"attributes":{
						"POSITION":0,
						"NORMAL":1,
						"TEXCOORD_0":2
					},
					"indices":3,
					"material":0
				}
			]
		}
	],
	"textures":[
		{
			"sampler":0,
			"source":0
		}
	],
	"images":[
		{
			"mimeType":"image/png",
			"name":"Image_0",
			"uri":"Image_0.png"
		}
	],
	"accessors":[
		{
			"bufferView":0,
			"componentType":5126,
			"count":11304,
			"max":[
				1.899999976158142,
				4,
				2
			],
			"min":[
				-1.899999976158142,
				0,
				-2
			],
			"type":"VEC3"
		},
		{
			"bufferView":1,
			"componentType":5126,
			"count":11304,
			"type":"VEC3"
		},
		{
			"bufferView":2,
			"componentType":5126,
			"count":11304,
			"type":"VEC2"
		},
		{
			"bufferView":3,
			"componentType":5123,
			"count":16956,
			"type":"SCALAR"
		}
	],
	"bufferViews":[
		{
			"buffer":0,
			"byteLength":135648,
			"byteOffset":0,
			"target":34962
		},
		{
			"buffer":0,
			"byteLength":135648,
			"byteOffset":135648,
			"target":34962
		},
		{
			"buffer":0,
			"byteLength":90432,
			"byteOffset":271296,
			"target":34962
		},
		{
			"buffer":0,
			"byteLength":33912,
			"byteOffset":361728,
			"target":34963
		}
	],
	"samplers":[
		{
			"magFilter":9729,
			"minFilter":9987
		}
	],
	"buffers":[
		{
			"byteLength":395640,
			"uri":"TreasureChest.bin"
		}
	]
}
