{
	"asset":{
		"generator":"Khronos glTF Blender I/O v5.1.20",
		"version":"2.0"
	},
	"scene":0,
	"scenes":[
		{
			"name":"Scene",
			"nodes":[
				0,
				1,
				2
			]
		}
	],
	"nodes":[
		{
			"mesh":0,
			"name":"Rod_Body"
		},
		{
			"mesh":1,
			"name":"Rod_Bobber"
		},
		{
			"mesh":2,
			"name":"Rod_String"
		}
	],
	"materials":[
		{
			"doubleSided":true,
			"name":"Material_0",
			"pbrMetallicRoughness":{
				"baseColorTexture":{
					"index":0
				},
				"metallicFactor":0,
				"roughnessFactor":0.800000011920929
			}
		}
	],
	"meshes":[
		{
			"name":"Mesh_0",
			"primitives":[
				{
					"attributes":{
						"POSITION":0,
						"NORMAL":1,
						"TEXCOORD_0":2
					},
					"indices":3,
					"material":0
				}
			]
		},
		{
			"name":"Mesh_0.001",
			"primitives":[
				{
					"attributes":{
						"POSITION":4,
						"NORMAL":5,
						"TEXCOORD_0":6
					},
					"indices":7,
					"material":0
				}
			]
		},
		{
			"name":"Mesh_0.002",
			"primitives":[
				{
					"attributes":{
						"POSITION":8,
						"NORMAL":9,
						"TEXCOORD_0":10
					},
					"indices":11,
					"material":0
				}
			]
		}
	],
	"textures":[
		{
			"sampler":0,
			"source":0
		}
	],
	"images":[
		{
			"mimeType":"image/jpeg",
			"name":"Image_0",
			"uri":"Image_0.jpg"
		}
	],
	"accessors":[
		{
			"bufferView":0,
			"componentType":5126,
			"count":15244,
			"max":[
				0.6597610116004944,
				0.948710024356842,
				0.33503100275993347
			],
			"min":[
				-0.6460639834403992,
				-0.950203001499176,
				-0.3370650112628937
			],
			"type":"VEC3"
		},
		{
			"bufferView":1,
			"componentType":5126,
			"count":15244,
			"type":"VEC3"
		},
		{
			"bufferView":2,
			"componentType":5126,
			"count":15244,
			"type":"VEC2"
		},
		{
			"bufferView":3,
			"componentType":5123,
			"count":52431,
			"type":"SCALAR"
		},
		{
			"bufferView":4,
			"componentType":5126,
			"count":1016,
			"max":[
				-0.43243199586868286,
				-0.22331400215625763,
				0.08559399843215942
			],
			"min":[
				-0.6113659739494324,
				-0.5646870136260986,
				-0.08769100159406662
			],
			"type":"VEC3"
		},
		{
			"bufferView":5,
			"componentType":5126,
			"count":1016,
			"type":"VEC3"
		},
		{
			"bufferView":6,
			"componentType":5126,
			"count":1016,
			"type":"VEC2"
		},
		{
			"bufferView":7,
			"componentType":5123,
			"count":3579,
			"type":"SCALAR"
		},
		{
			"bufferView":8,
			"componentType":5126,
			"count":679,
			"max":[
				-0.48696398735046387,
				0.7768070101737976,
				0.01257999986410141
			],
			"min":[
				-0.6617050170898438,
				-0.22899499535560608,
				-0.012455999851226807
			],
			"type":"VEC3"
		},
		{
			"bufferView":9,
			"componentType":5126,
			"count":679,
			"type":"VEC3"
		},
		{
			"bufferView":10,
			"componentType":5126,
			"count":679,
			"type":"VEC2"
		},
		{
			"bufferView":11,
			"componentType":5123,
			"count":2118,
			"type":"SCALAR"
		}
	],
	"bufferViews":[
		{
			"buffer":0,
			"byteLength":182928,
			"byteOffset":0,
			"target":34962
		},
		{
			"buffer":0,
			"byteLength":182928,
			"byteOffset":182928,
			"target":34962
		},
		{
			"buffer":0,
			"byteLength":121952,
			"byteOffset":365856,
			"target":34962
		},
		{
			"buffer":0,
			"byteLength":104862,
			"byteOffset":487808,
			"target":34963
		},
		{
			"buffer":0,
			"byteLength":12192,
			"byteOffset":592672,
			"target":34962
		},
		{
			"buffer":0,
			"byteLength":12192,
			"byteOffset":604864,
			"target":34962
		},
		{
			"buffer":0,
			"byteLength":8128,
			"byteOffset":617056,
			"target":34962
		},
		{
			"buffer":0,
			"byteLength":7158,
			"byteOffset":625184,
			"target":34963
		},
		{
			"buffer":0,
			"byteLength":8148,
			"byteOffset":632344,
			"target":34962
		},
		{
			"buffer":0,
			"byteLength":8148,
			"byteOffset":640492,
			"target":34962
		},
		{
			"buffer":0,
			"byteLength":5432,
			"byteOffset":648640,
			"target":34962
		},
		{
			"buffer":0,
			"byteLength":4236,
			"byteOffset":654072,
			"target":34963
		}
	],
	"samplers":[
		{
			"magFilter":9729,
			"minFilter":9987
		}
	],
	"buffers":[
		{
			"byteLength":658308,
			"uri":"WoodenRod_split.bin"
		}
	]
}
